<svg xmlns="http://www.w3.org/2000/svg" viewBox="0 0 26 26">
    <path fill="#fff" d="M25.9 10.6c-4.2 8.9-5.6 8.9-6.4 8.9h-8c-2.8 0-5-1.6-5.5-4.2l-2-10c-.2-1-.7-1.8-2.5-1.8a1.5 1.5 0 1 1 0-3c3 0 5 1.5 5.5 4.2l2 10c.3 1.6 1.7 1.8 2.5 1.8h7.6c.8-.9 2.7-4.3 4-7.1a1.5 1.5 0 0 1 2.8 1.2zm-15.4 9.9a2.5 2.5 0 1 0 0 5 2.5 2.5 0 0 0 0-5zm9 0a2.5 2.5 0 1 0 0 5 2.5 2.5 0 0 0 0-5zm-4.8-8.2.3.2c.1 0 .3 0 .4-.2 0 0 2.8-2.7 4.3-5a.6.6 0 0 0-.5-.8H17s-.2-4.3-.4-4.5c-.2-.3-1-.5-1.6-.5-.6 0-1.4.2-1.6.5-.2.2-.4 4.5-.4 4.5h-2.2a.6.6 0 0 0-.5.9c1.5 2.2 4.3 4.9 4.4 5z"/>
</svg>