<svg xmlns="http://www.w3.org/2000/svg" viewBox="0 0 84.77 14.07">
  <path fill="#fff" d="M0 0h5.36q4.52 0 4.52 3.59 0 .52-.41 1.21-.4.68-1.16 1.08-.34.2-1 .24v.04q.75-.06 1.03.04 1.2.34 1.79 1.31.6.96.6 2.24 0 4.2-4.8 4.2H0zm1.84 7.65v4.47h4.2q1.24 0 2.06-.64.82-.64.82-1.83 0-.98-.63-1.48-.64-.52-1.8-.52zm0-5.86v4.25h4.38q2.05 0 2.05-2.1 0-1.09-.79-1.6-.79-.55-2-.55zm9.84 4.87q0-2.67 2.5-2.67h3.76v1.83l-3.17.02q-.8 0-1.02.26-.23.24-.23 1.23v6.62h-1.84zm7.3 7.29V3.99h1.81v9.96zm7.95-10.08q1.7.02 3.03.93 1.33.9 1.71 2.57l-1.69.28q-.69-2.11-3.05-2.15-1.41-.02-2.35.92-.94.93-.94 2.55 0 1.63.92 2.57.92.91 2.37.87 2.34-.04 3.03-2.09l1.71.26q-.38 1.68-1.7 2.57-1.34.9-3.04.92-2.2.02-3.66-1.3-1.46-1.33-1.46-3.8t1.46-3.79q1.46-1.33 3.66-1.31zm7.57 10.08h-1.85V0h1.85l-.07 7.91q0 .74-.32 1.42l.04.02q.3-.72.82-1.18L39.53 4h2.57l-4.28 3.96 4.56 5.98h-.55v.02l-.02-.02h-1.76l-3.6-4.78-1.95 1.75zm12.36.12q-2.22 0-3.7-1.31-1.48-1.32-1.48-3.8 0-2.46 1.48-3.78 1.48-1.33 3.7-1.31 2.23.02 3.71 1.33 1.48 1.3 1.48 3.77t-1.48 3.78-3.71 1.32zm0-8.55q-1.37-.02-2.37.92-.97.91-.97 2.53 0 1.67.94 2.55.93.88 2.4.88 1.44 0 2.4-.88.95-.9.95-2.55 0-1.62-.97-2.51-.96-.92-2.38-.94zm6.17 1.14q0-2.67 2.5-2.67h3.76v1.83l-3.17.02q-.8 0-1.03.26-.23.24-.23 1.23v6.62h-1.83zm13.91 4.84q-.37 1.2-1.44 1.81-1.07.62-2.36.62-1.48 0-2.57-.76-1.07-.75-1.07-2.05 0-1.21.77-1.87.77-.66 1.87-.8 1.11-.14 2.2-.14 1.1-.02 1.85-.14.77-.14.75-.58-.03-1.11-.71-1.59-.68-.5-2.04-.5-1.2 0-1.94.44-.7.42-.86 1.51l-1.61-.24q.17-1.67 1.44-2.49 1.28-.81 2.97-.8.9 0 1.66.2.78.2 1.43.64.68.42 1.05 1.22.38.78.38 1.85v3.63q0 .38.13.52.13.12.43.12h.43v1.85h-1.2q-.7 0-1.13-.44-.43-.46-.43-1.13zm-5.64-.42q0 .76.66 1.16.65.38 1.63.38 1.27 0 2.3-.6 1.05-.62 1.05-1.6V9.11q-.5.32-1.55.4-1.03.08-1.9.06-.84-.02-1.52.34-.67.35-.67 1.17zm9.44 2.87V3.99h1.84v1.73q0 .68-.17 1.5h.04q.23-1.02.43-1.44.94-1.95 2.81-1.95 2.12 0 2.74 2.09.15.52.08 1.5h.03q.12-1.5.98-2.54.86-1.05 2.25-1.05 3 0 3 4.56v5.56h-1.84V8.81q0-1.46-.47-2.23-.45-.78-1.29-.78-.32 0-.64.12-.3.1-.65.4-.34.3-.6.77-.27.46-.44 1.26-.16.8-.16 1.81v3.79h-1.84V8.81q0-3.01-1.69-3.01-.37 0-.77.2-.39.18-.82.64-.43.43-.71 1.35-.27.92-.27 2.17v3.79z"/>
  <path fill="#ef233c" d="M18.98.83h1.83v1.83h-1.83z"/>
</svg>