<svg xmlns="http://www.w3.org/2000/svg" viewBox="0 0 64 10"><rect width="1.43" height="1.42" x="14.3" y=".58" fill="#ef233c" rx="0" ry="0"/><path fill="#fff" d="M0 0h4.05q3.41 0 3.41 2.55 0 .37-.31.86-.3.49-.88.77-.25.14-.75.17v.03q.57-.05.78.03.9.24 1.34.93.46.68.46 1.59 0 2.98-3.63 2.98H0Zm1.39 5.44V8.6h3.17q.93 0 1.56-.45.62-.45.62-1.3 0-.7-.48-1.05-.48-.37-1.36-.37Zm0-4.17V4.3H4.7q1.54 0 1.54-1.49 0-.77-.6-1.14-.59-.39-1.5-.39Zm7.43 3.46q0-1.9 1.88-1.9h2.85v1.3l-2.4.02q-.6 0-.77.18-.17.17-.17.88v4.7H8.8Zm5.51 5.18V2.83h1.37v7.08Zm6-7.16q1.29.01 2.3.66 1 .64 1.28 1.83l-1.27.2q-.53-1.5-2.31-1.53-1.06-.01-1.77.65-.7.67-.7 1.81 0 1.17.68 1.83.7.65 1.79.62 1.77-.02 2.3-1.48l1.28.18q-.28 1.2-1.29 1.83-1 .64-2.3.65-1.65.01-2.75-.92-1.1-.95-1.1-2.7 0-1.76 1.1-2.7 1.1-.95 2.76-.93zm5.72 7.16h-1.4V0h1.4l-.06 5.62q0 .53-.24 1l.03.02q.22-.5.62-.83l3.44-2.98h1.94l-3.23 2.82L32 9.9h-.4v.01h-1.35l-2.72-3.4-1.47 1.24Z M35.38 10q-1.67 0-2.8-.94-1.11-.93-1.11-2.69 0-1.75 1.12-2.69 1.12-.95 2.79-.93 1.68.01 2.8.95 1.12.92 1.12 2.67 0 1.76-1.12 2.7-1.12.93-2.8.93zm0-6.08q-1.04-.01-1.79.65-.73.66-.73 1.8 0 1.2.7 1.82.71.62 1.82.62 1.09 0 1.8-.62.73-.64.73-1.82 0-1.14-.74-1.78-.72-.65-1.8-.67zm4.65.81q0-1.9 1.89-1.9h2.84v1.3l-2.4.02q-.6 0-.77.18-.17.17-.17.88v4.7h-1.39zm10.51 3.44q-.29.85-1.1 1.3-.8.43-1.78.43-1.11 0-1.94-.54-.8-.54-.8-1.46 0-.86.58-1.33.58-.47 1.41-.56.84-.1 1.66-.1.83-.02 1.4-.1.58-.1.57-.41-.03-.8-.54-1.14-.51-.35-1.54-.35-.91 0-1.46.31-.54.3-.65 1.08l-1.22-.17q.13-1.2 1.09-1.77.96-.58 2.24-.57.68 0 1.26.14t1.07.46q.51.3.8.86.28.55.28 1.32v2.57q0 .27.1.37.1.09.32.09h.33v1.3h-.9q-.53 0-.86-.3-.32-.33-.32-.81zm-4.26-.3q0 .54.5.83.49.27 1.22.27.97 0 1.74-.43.8-.44.8-1.13v-.94q-.38.23-1.18.29-.78.05-1.43.04-.63-.02-1.14.24-.51.25-.51.84zm7.13 2.04V2.83h1.39v1.24q0 .48-.13 1.06h.03q.17-.72.32-1.02.71-1.4 2.13-1.4 1.6 0 2.07 1.5.1.36.05 1.06h.03q.09-1.06.74-1.8.65-.75 1.7-.75Q64 2.72 64 5.96v3.95h-1.39V6.26q0-1.03-.35-1.59-.34-.55-.98-.55-.24 0-.48.09-.23.07-.5.28-.25.21-.45.55-.2.33-.32.9-.13.56-.13 1.28v2.7H58V6.25q0-2.14-1.27-2.14-.29 0-.58.14-.3.13-.63.46-.32.3-.53.96-.2.65-.2 1.54v2.7Z"/></svg>