<svg xmlns="http://www.w3.org/2000/svg" viewBox="0 -189.93 539.86 539.86">
  <g transform="scale(4)">
    <path fill="#FFF" d="M134.03 35.27a3.83 3.83 0 0 1-3.83 3.83H4.73a3.83 3.83 0 0 1-3.84-3.83V4.72A3.84 3.84 0 0 1 4.73.9H130.2a3.83 3.83 0 0 1 3.83 3.83v30.55z"/>
    <path fill="#A6A6A6" d="M130.2 39.99H4.73A4.73 4.73 0 0 1 0 35.27V4.73A4.73 4.73 0 0 1 4.73 0H130.2a4.74 4.74 0 0 1 4.73 4.73v30.54c0 2.6-2.13 4.72-4.73 4.72z"/>
    <path d="M134.03 35.27a3.83 3.83 0 0 1-3.83 3.83H4.73a3.83 3.83 0 0 1-3.84-3.83V4.72A3.84 3.84 0 0 1 4.73.9H130.2a3.83 3.83 0 0 1 3.83 3.83v30.55z"/>
    <path fill="#FFF" d="M30.13 19.78a5.79 5.79 0 0 1 2.76-4.86 5.94 5.94 0 0 0-4.68-2.53c-1.96-.2-3.87 1.18-4.87 1.18-1.03 0-2.57-1.16-4.23-1.12a6.23 6.23 0 0 0-5.24 3.2c-2.27 3.91-.58 9.68 1.6 12.85 1.08 1.55 2.35 3.29 4 3.23 1.63-.07 2.24-1.04 4.2-1.04 1.95 0 2.52 1.04 4.2 1 1.75-.03 2.85-1.56 3.9-3.13a12.82 12.82 0 0 0 1.78-3.62 5.6 5.6 0 0 1-3.42-5.16zm-3.2-9.47a5.7 5.7 0 0 0 1.3-4.1 5.81 5.81 0 0 0-3.75 1.95 5.43 5.43 0 0 0-1.34 3.94 4.8 4.8 0 0 0 3.79-1.8z"/>
    <linearGradient id="a" x1="-23.23" x2="-23.23" y1="97.43" y2="61.39" gradientTransform="matrix(4 0 0 4 191.95 -349.74)" gradientUnits="userSpaceOnUse">
      <stop offset="0" stop-color="#1a1a1a" stop-opacity=".1"/>
      <stop offset=".12" stop-color="#212121" stop-opacity=".15"/>
      <stop offset=".31" stop-color="#353535" stop-opacity=".23"/>
      <stop offset=".53" stop-color="#575757" stop-opacity=".32"/>
      <stop offset=".78" stop-color="#858585" stop-opacity=".42"/>
      <stop offset="1" stop-color="#b3b3b3" stop-opacity=".51"/>
    </linearGradient>
    <path fill="url(#a)" d="M130.2 0H63l26.32 39.99h40.88a4.73 4.73 0 0 0 4.73-4.73V4.73A4.73 4.73 0 0 0 130.2 0z"/>
    <path fill="#FFF" d="M53.66 31.5H51.4l-1.24-3.9h-4.32l-1.19 3.9h-2.21l4.29-13.3h2.64l4.3 13.3zm-3.88-5.54-1.13-3.48c-.12-.35-.34-1.2-.67-2.5h-.04c-.13.56-.34 1.4-.63 2.5l-1.1 3.48h3.56zm14.88.63c0 1.63-.44 2.92-1.33 3.87a3.9 3.9 0 0 1-2.96 1.26c-1.27 0-2.18-.45-2.73-1.36v5.04H55.5V25.05c0-1.02-.02-2.07-.08-3.15h1.88l.12 1.52h.04a3.55 3.55 0 0 1 3.24-1.72c1.13 0 2.07.45 2.83 1.34a5.3 5.3 0 0 1 1.13 3.54zm-2.17.08c0-.94-.2-1.7-.63-2.32a2.18 2.18 0 0 0-1.86-.94c-.52 0-1 .17-1.43.52-.43.35-.7.8-.84 1.37a2.78 2.78 0 0 0-.1.65v1.6c0 .7.22 1.29.65 1.77.42.48.98.72 1.66.72.8 0 1.43-.3 1.88-.92.45-.62.67-1.44.67-2.45zm13.21-.08c0 1.63-.44 2.92-1.33 3.87a3.9 3.9 0 0 1-2.96 1.26c-1.27 0-2.18-.45-2.74-1.36v5.04h-2.13V25.05c0-1.02-.03-2.07-.08-3.15h1.88l.11 1.52h.04a3.55 3.55 0 0 1 3.24-1.72 3.6 3.6 0 0 1 2.84 1.34c.75.9 1.13 2.08 1.13 3.54zm-2.17.08c0-.94-.21-1.7-.64-2.32a2.18 2.18 0 0 0-1.85-.94 2.4 2.4 0 0 0-2.27 1.89c-.07.27-.1.48-.1.65v1.6c0 .7.21 1.29.64 1.77.43.48.98.72 1.67.72.8 0 1.43-.3 1.88-.92.44-.62.67-1.44.67-2.45zm14.51 1.1c0 1.13-.4 2.06-1.18 2.77a5.24 5.24 0 0 1-3.63 1.16 6.33 6.33 0 0 1-3.44-.83l.49-1.78c.93.56 1.96.83 3.08.83.8 0 1.43-.18 1.87-.54.45-.36.68-.84.68-1.45 0-.54-.19-1-.56-1.36a5.14 5.14 0 0 0-1.83-1.03c-2.33-.87-3.5-2.14-3.5-3.8 0-1.1.41-2 1.24-2.7A4.88 4.88 0 0 1 84.52 18c1.21 0 2.22.21 3.02.63l-.53 1.74c-.76-.4-1.6-.61-2.56-.61a2.6 2.6 0 0 0-1.76.55c-.36.33-.54.73-.54 1.2 0 .53.2.97.62 1.3.35.32 1 .67 1.93 1.04 1.15.46 1.99 1 2.53 1.61.54.62.81 1.4.81 2.31zm7.07-4.26h-2.35v4.66c0 1.18.41 1.77 1.24 1.77.38 0 .7-.03.95-.1l.06 1.62c-.42.16-.98.24-1.66.24a2.6 2.6 0 0 1-1.98-.77c-.47-.52-.7-1.38-.7-2.59V23.5h-1.4v-1.6h1.4v-1.75l2.09-.64v2.4h2.35v1.6zm10.58 3.12c0 1.47-.42 2.68-1.27 3.63a4.5 4.5 0 0 1-3.5 1.46 4.3 4.3 0 0 1-3.38-1.4 5.1 5.1 0 0 1-1.25-3.53c0-1.49.43-2.7 1.3-3.66a4.48 4.48 0 0 1 3.48-1.42c1.4 0 2.54.47 3.4 1.4a5.1 5.1 0 0 1 1.22 3.52zm-2.21.05a4.3 4.3 0 0 0-.57-2.27 2.11 2.11 0 0 0-1.92-1.14c-.85 0-1.5.38-1.95 1.14a4.3 4.3 0 0 0-.58 2.3c0 .89.2 1.64.58 2.27.46.76 1.1 1.14 1.93 1.14.82 0 1.46-.39 1.92-1.16.4-.64.59-1.4.59-2.28zm9.14-2.9a3.71 3.71 0 0 0-.67-.06c-.75 0-1.33.29-1.74.85a3.2 3.2 0 0 0-.53 1.9v5.03h-2.13v-6.57a67.43 67.43 0 0 0-.06-3.02h1.85l.08 1.83h.06a3.3 3.3 0 0 1 1.07-1.52 2.58 2.58 0 0 1 1.54-.51c.2 0 .37.01.53.04v2.03zm9.54 2.47a5 5 0 0 1-.08.97h-6.4c.03.95.34 1.67.93 2.17.54.45 1.24.67 2.1.67.94 0 1.8-.15 2.58-.45l.33 1.48a8 8 0 0 1-3.21.6 4.66 4.66 0 0 1-3.5-1.32 4.85 4.85 0 0 1-1.28-3.52c0-1.45.4-2.66 1.18-3.62a4.09 4.09 0 0 1 3.36-1.54 3.6 3.6 0 0 1 3.14 1.54c.56.82.85 1.82.85 3.02zm-2.04-.55a2.89 2.89 0 0 0-.41-1.64c-.37-.6-.94-.89-1.7-.89-.7 0-1.26.29-1.7.87a3.18 3.18 0 0 0-.63 1.66h4.44zM45.21 13.5a13 13 0 0 1-1.53-.09V6.98a11.6 11.6 0 0 1 1.8-.14c2.45 0 3.57 1.2 3.57 3.17 0 2.26-1.33 3.48-3.84 3.48zm.36-5.83c-.33 0-.61.02-.85.07v4.89c.13.02.37.03.71.03 1.6 0 2.52-.92 2.52-2.62 0-1.53-.83-2.37-2.38-2.37zm7 5.87c-1.38 0-2.28-1.03-2.28-2.43 0-1.45.91-2.49 2.35-2.49 1.36 0 2.27.98 2.27 2.42 0 1.47-.94 2.5-2.35 2.5zm.03-4.15c-.75 0-1.24.7-1.24 1.7 0 .96.5 1.67 1.23 1.67s1.24-.75 1.24-1.7c0-.96-.49-1.67-1.23-1.67zm10.17-.67-1.48 4.71h-.96l-.6-2.04a15.53 15.53 0 0 1-.39-1.53h-.02a10.2 10.2 0 0 1-.37 1.53l-.65 2.04h-.97l-1.4-4.71h1.08l.54 2.24.32 1.51h.02c.08-.4.2-.89.39-1.5l.67-2.25h.85l.64 2.2c.16.53.28 1.06.38 1.55h.03a13 13 0 0 1 .32-1.55l.57-2.2h1.03zm5.43 4.71h-1.05v-2.7c0-.84-.32-1.26-.95-1.26-.62 0-1.05.54-1.05 1.16v2.8h-1.04v-3.37c0-.41-.01-.86-.04-1.34h.92l.05.72h.03c.28-.5.85-.82 1.5-.82.98 0 1.63.76 1.63 1.99v2.82zm2.89 0h-1.05V6.55h1.05v6.88zm3.82.11c-1.38 0-2.27-1.03-2.27-2.43 0-1.45.91-2.49 2.35-2.49 1.36 0 2.27.98 2.27 2.42 0 1.47-.94 2.5-2.35 2.5zm.04-4.15c-.76 0-1.24.7-1.24 1.7 0 .96.5 1.67 1.23 1.67.74 0 1.23-.75 1.23-1.7 0-.96-.48-1.67-1.22-1.67zm6.44 4.04-.07-.54h-.03a1.6 1.6 0 0 1-1.38.65c-.85 0-1.45-.6-1.45-1.39 0-1.16 1.01-1.76 2.76-1.76v-.1c0-.61-.33-.92-.98-.92-.46 0-.87.11-1.23.35l-.21-.7c.43-.26.98-.4 1.61-.4 1.24 0 1.86.65 1.86 1.95v1.74c0 .47.02.84.07 1.12h-.95zm-.14-2.35c-1.17 0-1.75.29-1.75.95 0 .5.3.74.72.74.53 0 1.03-.4 1.03-.96v-.73zm6.1 2.35-.04-.75h-.03c-.3.57-.8.86-1.52.86-1.13 0-1.97-1-1.97-2.4 0-1.48.87-2.52 2.06-2.52.63 0 1.08.21 1.33.64h.02v-2.7h1.05v5.6c0 .46.01.88.04 1.27h-.93zm-.15-2.77c0-.66-.44-1.23-1.1-1.23-.78 0-1.25.7-1.25 1.66 0 .95.49 1.6 1.23 1.6.66 0 1.12-.57 1.12-1.25v-.78zm7.7 2.88c-1.38 0-2.27-1.03-2.27-2.43 0-1.45.91-2.49 2.35-2.49 1.36 0 2.27.98 2.27 2.42 0 1.47-.94 2.5-2.35 2.5zm.04-4.15c-.75 0-1.24.7-1.24 1.7 0 .96.5 1.67 1.23 1.67.74 0 1.23-.75 1.23-1.7 0-.96-.48-1.67-1.22-1.67zm7.95 4.04h-1.05v-2.7c0-.84-.32-1.26-.95-1.26-.62 0-1.05.54-1.05 1.16v2.8h-1.05v-3.37c0-.41 0-.86-.04-1.34h.92l.05.72h.03c.28-.5.86-.82 1.5-.82.99 0 1.64.76 1.64 1.99v2.82zm7.05-3.93h-1.15v2.3c0 .58.2.87.6.87.19 0 .34-.02.47-.05l.03.8c-.2.07-.48.11-.81.11-.83 0-1.32-.45-1.32-1.65V9.5h-.7v-.78h.7v-.87l1.02-.3v1.17h1.16v.78zm5.55 3.93h-1.05v-2.69c0-.84-.32-1.27-.95-1.27-.54 0-1.05.37-1.05 1.12v2.84h-1.05V6.55h1.05V9.4h.02c.33-.52.8-.77 1.42-.77 1 0 1.6.78 1.6 2v2.81zm5.68-2.1h-3.15c.03.89.62 1.4 1.5 1.4.46 0 .88-.08 1.26-.23l.17.73c-.45.2-.98.29-1.59.29-1.47 0-2.34-.93-2.34-2.38 0-1.44.89-2.53 2.23-2.53 1.2 0 1.96.9 1.96 2.24a2.02 2.02 0 0 1-.04.48zm-.96-.75c0-.73-.37-1.24-1.04-1.24-.6 0-1.08.52-1.14 1.24h2.18z"/>
  </g>
</svg>